<?xml version="1.0" standalone="no"?><!DOCTYPE svg PUBLIC "-//W3C//DTD SVG 1.1//EN" "http://www.w3.org/Graphics/SVG/1.1/DTD/svg11.dtd"><svg t="1616906768946" class="icon" viewBox="0 0 1024 1024" version="1.1" xmlns="http://www.w3.org/2000/svg" p-id="8640" xmlns:xlink="http://www.w3.org/1999/xlink" width="200" height="200"><defs><style type="text/css"></style></defs><path d="M158.4 466.9s54.3-37 107.1-42.8c42.4-4.8 85.7 21.4 85.7 21.4s53.3 31.5 64.2 0c6.3-18.1 39.8-50.8 85.7-64.2 33.8-9.9 83.8-4.5 85.7 0 4.5 10.5-42.8-257-42.8-257s-46.6-29.1-64.2 0c-9.6 15.7-75.2 76.3-128.6 64.2-45.5-10.3-82.3-90.9-64.2-107.1 21-18.8 38.6-46.7 107-64.2 58.9-15.1 146-20 192.8 0 95.9 40.1 245.1 273.7 278.4 342.7 33.5 69.1 32.3 128.9 0 171.3-16.6 21.8-114 138.3-235.6 192.8C513.5 776.1 394 766.8 394 766.8s-67.9 149.8-128.5 192.8c-60.6 42.9-107.1 64.2-107.1 64.2V466.9z" fill="#F9BA84" p-id="8641"></path><path d="M629.6 424.1s-57.4 15.2-107.1 42.8C476 492.8 394 531.2 394 531.2s50.5-82.3 107.1-107c56.6-24.8 128.5-0.1 128.5-0.1z" fill="#D18B4F" p-id="8642"></path><path d="M261.9 445.3c-27.3 2.6-56.9 16.4-81.4 31v30.6c28.6-4 63.1-9.2 88.6-14.2 55.9-10.9 115.1-7.6 115.1-7.6s-60.8-45.8-122.3-39.8z" fill="#D18B4F" p-id="8643"></path></svg>